<svg width="222" height="100" viewBox="0 0 222 100" fill="none" xmlns="http://www.w3.org/2000/svg">
<path fill-rule="evenodd" clip-rule="evenodd" d="M47.6934 68.0546C47.9233 68.7761 48.0734 69.3532 48.1335 69.7753C48.1934 70.1979 48.1134 70.5172 47.9032 70.7336C47.6835 70.9395 47.3032 71.0739 46.753 71.125C46.2127 71.1767 45.4523 71.1974 44.5023 71.1974C43.5018 71.1974 42.7216 71.1869 42.1711 71.156C41.611 71.125 41.191 71.0634 40.8907 70.9708C40.6006 70.8779 40.4006 70.754 40.2807 70.5896C40.1607 70.4348 40.0603 70.2186 39.9906 69.9607L37.4994 62.1103H37.4639L30.2391 39.6697L22.7738 62.9794L22.9223 62.9783L20.8033 69.7448C20.7231 70.0334 20.6233 70.2699 20.4931 70.4554C20.3731 70.6514 20.163 70.7957 19.8828 70.909C19.6029 71.0223 19.2027 71.0945 18.6823 71.1354C18.1625 71.1768 17.4818 71.1976 16.6415 71.1976C15.7414 71.1976 15.0409 71.1667 14.531 71.1047C14.0205 71.0428 13.6705 70.8988 13.4805 70.6719C13.2803 70.435 13.2106 70.1055 13.2704 69.6829C13.3305 69.2605 13.4805 68.7041 13.7105 67.9932L25.3951 33.3239C25.5048 32.9839 25.6449 32.7059 25.8049 32.5C25.9552 32.2832 26.2051 32.1287 26.5454 32.0157C26.8957 31.9021 27.3659 31.8303 27.9758 31.799C28.5763 31.7683 29.3762 31.7578 30.3768 31.7578C31.5271 31.7578 32.4477 31.7683 33.1277 31.799C33.8183 31.8303 34.3481 31.9021 34.7284 32.0157C35.1086 32.1287 35.3786 32.2938 35.5488 32.5102C35.7087 32.7365 35.8591 33.0353 35.9691 33.4165L47.6934 68.0546Z" fill="#0F73D1"/>
<path fill-rule="evenodd" clip-rule="evenodd" d="M47.6934 68.0546C47.9233 68.7761 48.0734 69.3532 48.1335 69.7753C48.1934 70.1979 48.1134 70.5172 47.9032 70.7336C47.6835 70.9395 47.3032 71.0739 46.753 71.125C46.2127 71.1767 45.4523 71.1974 44.5023 71.1974C43.5018 71.1974 42.7216 71.1869 42.1711 71.156C41.611 71.125 41.191 71.0634 40.8907 70.9708C40.6006 70.8779 40.4006 70.754 40.2807 70.5896C40.1607 70.4348 40.0603 70.2186 39.9906 69.9607L37.4994 62.1103H37.4639L30.2391 39.6697L22.7738 62.9794L22.9223 62.9783L20.8033 69.7448C20.7231 70.0334 20.6233 70.2699 20.4931 70.4554C20.3731 70.6514 20.163 70.7957 19.8828 70.909C19.6029 71.0223 19.2027 71.0945 18.6823 71.1354C18.1625 71.1768 17.4818 71.1976 16.6415 71.1976C15.7414 71.1976 15.0409 71.1667 14.531 71.1047C14.0205 71.0428 13.6705 70.8988 13.4805 70.6719C13.2803 70.435 13.2106 70.1055 13.2704 69.6829C13.3305 69.2605 13.4805 68.7041 13.7105 67.9932L25.3951 33.3239C25.5048 32.9839 25.6449 32.7059 25.8049 32.5C25.9552 32.2832 26.2051 32.1287 26.5454 32.0157C26.8957 31.9021 27.3659 31.8303 27.9758 31.799C28.5763 31.7683 29.3762 31.7578 30.3768 31.7578C31.5271 31.7578 32.4477 31.7683 33.1277 31.799C33.8183 31.8303 34.3481 31.9021 34.7284 32.0157C35.1086 32.1287 35.3786 32.2938 35.5488 32.5102C35.7087 32.7365 35.8591 33.0353 35.9691 33.4165L47.6934 68.0546Z" fill="#0F73D1"/>
<path fill-rule="evenodd" clip-rule="evenodd" d="M16.5965 63.1035H43.0738C43.2415 63.1035 43.4004 63.1654 43.5419 63.2992C43.674 63.4333 43.7892 63.6497 43.8773 63.9485C43.9657 64.247 44.0272 64.6591 44.0803 65.1746C44.1334 65.6896 44.1599 66.3284 44.1599 67.091C44.1599 67.8737 44.1334 68.5228 44.0803 69.0277C44.0272 69.5223 43.9657 69.9344 43.8773 70.2332C43.7892 70.532 43.674 70.7484 43.5419 70.8821C43.4004 71.0159 43.2415 71.0779 43.0738 71.0779H16.5965V63.1035Z" fill="#0F73D1"/>
<path fill-rule="evenodd" clip-rule="evenodd" d="M30.0052 31.4448L31.0364 30.9219C30.7878 34.1514 33.3751 37.0556 38.0449 37.0665C38.0644 37.6445 37.9946 37.1355 38.0141 37.7142C34.6475 38.2537 31.3323 41.3557 30.9668 43.8541C30.4537 43.9205 30.3183 43.9875 29.8052 44.0539C29.6746 40.737 26.2662 37.9778 22.5806 38.164C22.6003 37.6301 22.5886 37.8493 22.6083 37.3157C25.6497 37.0627 29.8065 34.7233 30.0052 31.4448Z" fill="white"/>
<path d="M55.8 71.6973C54.5184 71.6973 53.8776 71.0107 53.8776 69.6376V34.3755C53.8776 33.0023 54.5184 32.3158 55.8 32.3158H60.2489C61.3474 32.3158 61.8967 33.0023 61.8967 34.3755V64.8865H77.9075C79.2806 64.8865 79.9672 65.4815 79.9672 66.6716V69.9122C79.9672 71.1022 79.2806 71.6973 77.9075 71.6973H55.8ZM87.7116 71.6973C86.43 71.6973 85.7892 71.0107 85.7892 69.6376V34.3755C85.7892 33.0023 86.43 32.3158 87.7116 32.3158H111.275C112.648 32.3158 113.334 32.9108 113.334 34.1008V37.3414C113.334 38.5315 112.648 39.1265 111.275 39.1265H93.8084V47.8596H109.819C111.192 47.8596 111.879 48.4547 111.879 49.6447V52.8853C111.879 54.0754 111.192 54.6704 109.819 54.6704H93.8084V64.8865H112.153C113.527 64.8865 114.213 65.4815 114.213 66.6716V69.9122C114.213 71.1022 113.527 71.6973 112.153 71.6973H87.7116ZM122.864 71.6973C121.582 71.6973 120.941 71.0107 120.941 69.6376V34.3755C120.941 33.0023 121.582 32.3158 122.864 32.3158H127.038C128.32 32.3158 128.961 33.0023 128.961 34.3755V69.6376C128.961 71.0107 128.32 71.6973 127.038 71.6973H122.864ZM137.913 71.6973C136.156 71.6973 135.808 70.91 136.87 69.3355L149.036 51.3749L137.859 34.6775C136.797 33.103 137.144 32.3158 138.902 32.3158H144.45C145.42 32.3158 146.244 32.8559 146.921 33.9361L154.419 45.7999L161.916 33.9361C162.593 32.8559 163.417 32.3158 164.387 32.3158H169.935C171.693 32.3158 172.04 33.103 170.979 34.6775L159.774 51.3749L171.967 69.3355C173.029 70.91 172.681 71.6973 170.924 71.6973H165.294C164.342 71.6973 163.518 71.1572 162.822 70.077L154.419 56.9498L146.015 70.077C145.319 71.1572 144.495 71.6973 143.543 71.6973H137.913Z" fill="#0F73D1"/>
<path fill-rule="evenodd" clip-rule="evenodd" d="M193.287 30.6523C197.391 30.6523 201.208 31.9119 204.397 34.0744L199.899 38.9224C197.933 37.8232 195.681 37.1986 193.287 37.1986C185.625 37.1986 179.414 43.5957 179.414 51.4868C179.414 59.3778 185.625 65.7748 193.287 65.7748C200.949 65.7748 207.16 59.3778 207.16 51.4868C207.16 48.2721 206.129 45.3058 204.39 42.9185L208.822 38.1421C211.752 41.7565 213.517 46.409 213.517 51.4868C213.517 62.9934 204.459 72.3212 193.287 72.3212C182.114 72.3212 173.057 62.9934 173.057 51.4868C173.057 39.9794 182.114 30.6523 193.287 30.6523Z" fill="#0F73D1"/>
</svg>
